<svg width="31" height="22" viewBox="0 0 31 22" fill="none" xmlns="http://www.w3.org/2000/svg">
<path d="M31 10.9052C31 10.8307 31 10.7461 30.9965 10.6479C30.9931 10.3737 30.9862 10.0656 30.9792 9.73715C30.9516 8.79255 30.9031 7.85134 30.827 6.9643C30.7232 5.74207 30.571 4.72299 30.3634 3.95783C30.1443 3.15932 29.7149 2.43107 29.1181 1.84585C28.5213 1.26063 27.7779 0.838952 26.9624 0.622961C25.9833 0.365651 24.0665 0.206525 21.3679 0.108341C20.0843 0.0609417 18.7107 0.0304707 17.3372 0.0135424C16.8563 0.00677111 16.4099 0.00338566 16.0086 0H14.9914C14.5901 0.00338566 14.1438 0.00677111 13.6628 0.0135424C12.2893 0.0304707 10.9157 0.0609417 9.63214 0.108341C6.93348 0.209911 5.01328 0.369036 4.03761 0.622961C3.22179 0.838422 2.47816 1.25992 1.88126 1.84522C1.28435 2.43052 0.85513 3.15906 0.636607 3.95783C0.425558 4.72299 0.276786 5.74207 0.172991 6.9643C0.096875 7.85134 0.0484375 8.79255 0.0207589 9.73715C0.0103794 10.0656 0.00691959 10.3737 0.00345977 10.6479C0.00345977 10.7461 0 10.8307 0 10.9052V11.0948C0 11.1693 -5.28526e-08 11.2539 0.00345977 11.3521C0.00691959 11.6263 0.0138392 11.9344 0.0207589 12.2628C0.0484375 13.2074 0.096875 14.1487 0.172991 15.0357C0.276786 16.2579 0.429018 17.277 0.636607 18.0422C1.07946 19.6639 2.38036 20.9437 4.03761 21.377C5.01328 21.6343 6.93348 21.7935 9.63214 21.8917C10.9157 21.9391 12.2893 21.9695 13.6628 21.9865C14.1438 21.9932 14.5901 21.9966 14.9914 22H16.0086C16.4099 21.9966 16.8563 21.9932 17.3372 21.9865C18.7107 21.9695 20.0843 21.9391 21.3679 21.8917C24.0665 21.7901 25.9867 21.631 26.9624 21.377C28.6196 20.9437 29.9205 19.6673 30.3634 18.0422C30.5744 17.277 30.7232 16.2579 30.827 15.0357C30.9031 14.1487 30.9516 13.2074 30.9792 12.2628C30.9896 11.9344 30.9931 11.6263 30.9965 11.3521C30.9965 11.2539 31 11.1693 31 11.0948V10.9052V10.9052ZM28.5089 11.0813C28.5089 11.1524 28.5089 11.2302 28.5055 11.3216C28.502 11.5857 28.4951 11.8769 28.4882 12.1918C28.464 13.0923 28.4155 13.9929 28.3429 14.8292C28.2494 15.9194 28.118 16.8132 27.9554 17.4124C27.7409 18.1945 27.1112 18.8141 26.3154 19.0206C25.5888 19.2102 23.7586 19.3626 21.271 19.454C20.0116 19.5014 18.6554 19.5319 17.3026 19.5488C16.8286 19.5556 16.3892 19.5589 15.9948 19.5589H15.0052L13.6974 19.5488C12.3446 19.5319 10.9919 19.5014 9.72902 19.454C7.24141 19.3592 5.4077 19.2102 4.6846 19.0206C3.88884 18.8107 3.25915 18.1945 3.04464 17.4124C2.88203 16.8132 2.75056 15.9194 2.65714 14.8292C2.58449 13.9929 2.53951 13.0923 2.51183 12.1918C2.50145 11.8769 2.49799 11.5823 2.49453 11.3216C2.49453 11.2302 2.49107 11.149 2.49107 11.0813V10.9187C2.49107 10.8476 2.49107 10.7698 2.49453 10.6784C2.49799 10.4143 2.50491 10.1231 2.51183 9.80825C2.53605 8.90766 2.58449 8.00708 2.65714 7.17082C2.75056 6.08064 2.88203 5.18683 3.04464 4.58757C3.25915 3.80548 3.88884 3.1859 4.6846 2.97938C5.41116 2.78978 7.24141 2.63743 9.72902 2.54601C10.9884 2.49861 12.3446 2.46814 13.6974 2.45122C14.1714 2.44444 14.6108 2.44106 15.0052 2.44106H15.9948L17.3026 2.45122C18.6554 2.46814 20.0081 2.49861 21.271 2.54601C23.7586 2.64081 25.5923 2.78978 26.3154 2.97938C27.1112 3.18929 27.7409 3.80548 27.9554 4.58757C28.118 5.18683 28.2494 6.08064 28.3429 7.17082C28.4155 8.00708 28.4605 8.90766 28.4882 9.80825C28.4986 10.1231 28.502 10.4177 28.5055 10.6784C28.5055 10.7698 28.5089 10.851 28.5089 10.9187V11.0813ZM12.4208 15.5368L20.4475 10.9661L12.4208 6.46322V15.5368Z" fill="#3477FA"/>
</svg>
